<?xml version="1.0" encoding="UTF-8"?>
<svg xmlns="http://www.w3.org/2000/svg" xmlns:xlink="http://www.w3.org/1999/xlink" width="302.63pt" height="302.63pt" viewBox="0 0 302.63 302.63" version="1.1">
<defs>
<clipPath id="clip1">
  <path d="M 59 1 L 302.628906 1 L 302.628906 302.628906 L 59 302.628906 Z M 59 1 "/>
</clipPath>
</defs>
<g id="surface1">
<path style=" stroke:none;fill-rule:nonzero;fill:rgb(100%,100%,100%);fill-opacity:1;" d="M 242.640625 196.425781 C 235.6875 249.910156 198.246094 268.628906 198.246094 268.628906 C 139.414063 305 75.769531 253.652344 75.769531 253.652344 L 59.1875 271.300781 C 82.730469 288.726563 106.015625 297.09375 126.394531 300.589844 C 97.308594 295.769531 71.019531 282.652344 50.050781 263.75 C 57.742188 257.359375 96.335938 223.246094 91.519531 185.664063 C 91.519531 185.664063 92.648438 93.351563 99.78125 72.8125 C 99.78125 72.8125 104.949219 25.433594 155.699219 13.308594 L 155.699219 0.117188 C 155.699219 0.117188 155.445313 0.101563 154.949219 0.078125 C 154.890625 0.078125 154.828125 0.0742188 154.765625 0.0742188 C 154.757813 0.0742188 154.746094 0.0703125 154.738281 0.0703125 C 154.667969 0.0664063 154.59375 0.0625 154.515625 0.0625 C 154.375 0.0585938 154.222656 0.0507813 154.058594 0.046875 C 153.976563 0.0429688 153.894531 0.0429688 153.808594 0.0390625 C 153.757813 0.0351563 153.703125 0.0351563 153.652344 0.0351563 C 153.554688 0.03125 153.453125 0.03125 153.355469 0.0273438 C 153.308594 0.0273438 153.261719 0.0273438 153.214844 0.0234375 C 153.121094 0.0234375 153.023438 0.0195313 152.925781 0.0195313 C 152.875 0.015625 152.824219 0.015625 152.773438 0.015625 C 158.199219 0.0664063 163.558594 0.398438 168.828125 1.007813 L 168.828125 12.4375 C 226.304688 19.925781 229.269531 68.0625 229.269531 68.0625 C 234.078125 104.429688 184.878906 142.402344 184.878906 142.402344 C 246.917969 140.265625 242.640625 196.425781 242.640625 196.425781 "/>
<g clip-path="url(#clip1)" clip-rule="nonzero">
<path style=" stroke:none;fill-rule:nonzero;fill:rgb(74.499512%,11.399841%,17.298889%);fill-opacity:1;" d="M 302.625 151.316406 C 302.625 212.660156 266.121094 265.476563 213.648438 289.230469 C 207.195313 291.917969 200.289063 294.339844 192.898438 296.441406 C 192.898438 296.441406 188.183594 298.242188 179.96875 299.917969 C 179.964844 299.917969 179.960938 299.921875 179.957031 299.921875 C 170.683594 301.699219 161.105469 302.628906 151.3125 302.628906 C 142.835938 302.628906 134.519531 301.933594 126.425781 300.59375 C 126.410156 300.589844 126.402344 300.589844 126.394531 300.585938 C 106.015625 297.09375 82.730469 288.726563 59.1875 271.300781 L 75.769531 253.652344 C 75.769531 253.652344 139.414063 305 198.246094 268.628906 C 198.246094 268.628906 235.6875 249.910156 242.640625 196.425781 C 242.640625 196.425781 246.917969 140.265625 184.878906 142.40625 C 184.878906 142.40625 234.082031 104.429688 229.269531 68.0625 C 229.269531 68.0625 226.304688 19.925781 168.832031 12.4375 L 168.832031 1.007813 C 177.894531 2.050781 186.714844 3.898438 195.214844 6.472656 C 205.078125 9.6875 216.851563 14.449219 228.992188 21.4375 C 229.003906 21.445313 229.015625 21.449219 229.023438 21.457031 C 273.117188 47.902344 302.625 96.160156 302.625 151.316406 "/>
</g>
<path style=" stroke:none;fill-rule:nonzero;fill:rgb(17.999268%,18.798828%,57.299805%);fill-opacity:1;" d="M 155.699219 0.117188 L 155.699219 13.3125 C 104.949219 25.433594 99.78125 72.8125 99.78125 72.8125 C 92.648438 93.351563 91.515625 185.664063 91.515625 185.664063 C 96.339844 223.246094 57.742188 257.359375 50.050781 263.75 C 19.320313 236.054688 0 195.945313 0 151.316406 C 0 77.867188 52.332031 16.644531 121.742188 2.890625 C 121.78125 2.882813 121.820313 2.875 121.859375 2.867188 C 132.082031 0.945313 140.757813 0.277344 146.765625 0.078125 C 146.859375 0.0742188 146.953125 0.0703125 147.050781 0.0664063 C 147.144531 0.0625 147.238281 0.0625 147.335938 0.0585938 C 147.535156 0.0546875 147.734375 0.046875 147.929688 0.0429688 C 148.160156 0.0390625 148.386719 0.03125 148.609375 0.0273438 C 148.621094 0.0273438 148.636719 0.0273438 148.648438 0.0273438 C 148.910156 0.0234375 149.164063 0.0195313 149.414063 0.015625 C 149.46875 0.015625 149.515625 0.015625 149.566406 0.015625 C 149.820313 0.0117188 150.078125 0.0078125 150.335938 0.0078125 C 150.632813 0.00390625 150.917969 0.00390625 151.1875 0.00390625 C 151.328125 0.00390625 151.464844 0.00390625 151.597656 0.00390625 C 151.664063 0.00390625 151.734375 0.0078125 151.800781 0.0078125 C 151.863281 0.0078125 151.929688 0.0078125 151.988281 0.0078125 C 152.058594 0.0078125 152.125 0.0078125 152.191406 0.0117188 C 152.339844 0.0117188 152.476563 0.0117188 152.609375 0.015625 C 152.71875 0.015625 152.820313 0.0195313 152.925781 0.0195313 C 153.023438 0.0234375 153.121094 0.0234375 153.214844 0.0234375 C 153.261719 0.0273438 153.308594 0.0273438 153.351563 0.0273438 C 153.453125 0.03125 153.554688 0.03125 153.648438 0.0351563 C 153.703125 0.0390625 153.757813 0.0390625 153.808594 0.0390625 C 153.894531 0.0429688 153.976563 0.046875 154.054688 0.046875 C 154.222656 0.0507813 154.375 0.0585938 154.515625 0.0625 C 154.59375 0.0664063 154.667969 0.0664063 154.738281 0.0703125 C 154.746094 0.0703125 154.757813 0.0742188 154.765625 0.0742188 C 154.828125 0.0742188 154.890625 0.078125 154.945313 0.078125 C 155.441406 0.101563 155.699219 0.117188 155.699219 0.117188 "/>
</g>
</svg>
